<?xml version="1.0" standalone="no"?>
<!DOCTYPE svg PUBLIC "-//W3C//DTD SVG 20010904//EN"
 "http://www.w3.org/TR/2001/REC-SVG-20010904/DTD/svg10.dtd">
<svg version="1.0" xmlns="http://www.w3.org/2000/svg"
 width="700.000000pt" height="700.000000pt" viewBox="0 0 700.000000 700.000000"
 preserveAspectRatio="xMidYMid meet">
<metadata>
Created by potrace 1.14, written by Peter Selinger 2001-2017
</metadata>
<g transform="translate(0.000000,700.000000) scale(0.100000,-0.100000)"
fill="#000000" stroke="none">
<path d="M5844 6309 c-90 -212 -124 -283 -140 -289 -12 -5 -52 -12 -90 -15
-38 -4 -77 -9 -86 -10 -9 -2 -48 -7 -85 -10 -37 -4 -75 -9 -83 -10 -23 -4
-118 -16 -245 -31 -27 -3 -51 -6 -52 -8 -2 -2 86 -57 393 -243 l172 -104 6
-42 c13 -86 17 -137 12 -137 -3 0 -57 26 -118 58 -314 162 -757 304 -1118 358
-19 3 -46 7 -60 10 -14 2 -45 6 -70 9 -25 3 -54 8 -65 10 -11 2 -56 7 -100 10
-44 4 -88 9 -99 11 -52 10 -309 18 -536 18 -214 0 -316 -4 -525 -17 -16 -1
-121 12 -145 18 -3 0 -27 5 -55 10 -27 5 -53 9 -57 11 -5 1 -17 2 -28 3 -11 0
-20 5 -20 10 0 7 -302 495 -316 510 -2 2 -3 -118 -1 -267 l4 -271 -321 -107
c-177 -59 -323 -108 -325 -110 -10 -9 10 -12 109 -19 58 -4 121 -8 140 -10 19
-2 69 -7 110 -10 41 -3 91 -8 110 -10 34 -4 211 -17 238 -18 14 0 28 -28 36
-70 2 -12 14 -62 25 -112 12 -49 30 -130 42 -180 11 -49 21 -91 23 -92 4 -4
30 52 167 356 43 96 71 146 84 151 11 4 47 11 80 14 33 4 76 11 95 15 19 4 46
7 60 5 59 -4 156 -15 170 -19 8 -3 33 -7 55 -10 22 -2 51 -7 65 -10 14 -3 40
-8 59 -11 18 -3 43 -8 55 -10 11 -2 35 -7 51 -10 162 -28 502 -131 710 -214
180 -72 284 -123 490 -239 76 -43 260 -170 345 -237 122 -97 303 -282 392
-401 307 -409 357 -835 134 -1146 -112 -158 -283 -280 -516 -372 -90 -35 -313
-95 -410 -110 -25 -4 -53 -9 -62 -10 -9 -2 -48 -7 -85 -10 -37 -4 -79 -8 -93
-11 -14 -2 -87 -7 -163 -10 l-138 -7 5 44 c5 40 21 155 30 219 2 14 7 48 11
75 26 195 16 170 107 277 25 29 110 130 188 223 79 94 163 193 188 222 l44 52
-258 126 c-142 70 -300 147 -351 171 -98 47 -109 59 -193 205 -8 14 -82 133
-164 264 l-149 238 -121 -125 c-67 -69 -190 -197 -274 -284 l-154 -159 -66 0
c-37 1 -98 4 -137 8 -38 4 -104 10 -145 14 -160 16 -791 8 -896 -11 -10 -2
-46 -7 -79 -11 -32 -4 -68 -9 -80 -11 -11 -2 -33 -6 -50 -9 -75 -13 -227 -49
-300 -71 -407 -125 -680 -317 -852 -599 -38 -62 -87 -199 -101 -280 -9 -55 -9
-270 1 -327 71 -438 441 -885 1004 -1217 l73 -43 -77 -84 c-43 -46 -83 -84
-90 -84 -7 0 -66 16 -131 36 -212 65 -277 85 -292 88 -14 4 -167 51 -198 61
-15 5 -8 -8 24 -45 146 -168 404 -483 404 -495 0 -12 -38 -126 -60 -180 -5
-11 -29 -81 -55 -155 -26 -74 -55 -156 -65 -182 -10 -27 -16 -48 -12 -48 4 0
36 26 72 58 36 31 90 77 119 102 29 25 66 56 81 70 15 14 38 34 51 45 13 11
55 46 92 78 38 31 74 57 80 57 7 0 149 -54 317 -119 168 -65 307 -117 308
-115 4 3 -86 135 -285 421 -62 89 -113 168 -113 175 0 17 51 181 60 191 3 4
33 -4 66 -19 250 -111 651 -234 949 -289 50 -10 99 -19 110 -21 11 -2 40 -7
65 -10 25 -3 52 -7 60 -9 38 -10 313 -41 440 -50 128 -10 372 -18 500 -18 152
0 493 12 532 18 13 2 68 6 123 10 55 4 108 9 118 11 10 2 46 6 80 9 34 3 94
10 132 15 39 5 90 12 115 15 48 6 132 18 140 20 3 1 33 5 68 10 34 4 64 11 67
15 2 3 -22 3 -53 -1 -271 -37 -936 -45 -1133 -14 -13 2 -51 6 -84 9 -290 29
-601 95 -895 191 -77 25 -152 52 -167 60 -16 8 -32 15 -36 15 -17 0 -186 76
-297 134 -579 299 -949 710 -1035 1149 -13 67 -14 250 -2 319 21 119 105 293
192 397 34 41 125 129 174 169 25 20 48 39 51 42 20 22 191 121 278 162 59 27
114 53 123 58 16 8 20 2 287 -500 19 -36 39 -70 43 -76 5 -6 7 -13 5 -15 -2
-2 -7 -51 -11 -109 -3 -58 -8 -121 -10 -140 -1 -19 -6 -87 -10 -150 -8 -126
-10 -153 -19 -284 l-7 -88 48 7 c26 3 107 17 178 30 72 13 222 40 335 60 l204
37 96 -38 c52 -20 156 -64 230 -96 290 -127 510 -208 730 -267 132 -35 327
-76 415 -86 33 -4 68 -9 77 -11 52 -9 190 -16 308 -16 249 0 429 27 640 98
217 72 401 184 556 339 190 190 305 410 361 690 17 86 23 320 11 420 -54 445
-324 902 -720 1222 -40 32 -75 62 -78 66 -3 5 38 75 90 157 l95 148 175 62
c96 34 184 65 195 70 11 5 76 28 144 51 106 36 120 44 100 51 -109 41 -509
181 -526 185 -19 5 -36 47 -128 324 -59 175 -108 319 -109 319 -1 0 -56 -126
-122 -281z"/>
<path d="M480 5878 c5 -18 11 -49 14 -68 4 -31 28 -164 40 -227 3 -15 -13 -40
-57 -90 -167 -187 -192 -216 -187 -222 3 -3 7 -5 10 -5 3 1 34 5 70 8 71 7
123 13 215 26 33 4 60 7 61 6 3 -5 237 -316 238 -316 2 0 3 45 6 237 l2 162
164 118 c90 65 164 121 164 125 0 4 -8 6 -17 6 -20 0 -287 13 -348 17 -22 2
-49 4 -60 4 -11 1 -31 11 -45 24 -56 50 -267 227 -273 227 -3 0 -2 -15 3 -32z"/>
<path d="M5387 1788 c8 -24 52 -180 98 -348 l84 -305 -22 -31 c-12 -17 -34
-46 -49 -65 -25 -32 -167 -218 -290 -381 -32 -41 -58 -77 -58 -80 0 -3 120 26
268 64 147 37 297 76 334 85 l68 17 229 -235 230 -234 -5 100 c-2 55 -6 132
-8 170 -3 39 -8 140 -12 225 -3 85 -7 167 -8 182 -1 23 24 48 169 173 94 81
201 174 238 206 59 51 66 63 37 61 -3 0 -111 -3 -240 -7 -129 -3 -277 -8 -329
-10 l-94 -4 -61 42 c-50 33 -231 164 -271 195 -54 41 -298 214 -309 218 -12 5
-12 0 1 -38z"/>
</g>
</svg>
