<?xml version="1.0" encoding="utf-8"?>
<!-- Generator: Adobe Illustrator 22.0.1, SVG Export Plug-In . SVG Version: 6.00 Build 0)  -->
<svg version="1.1"
	 id="svg2" inkscape:output_extension="org.inkscape.output.svg.inkscape" inkscape:version="0.45+devel" sodipodi:docname="Astro_signs.svg" sodipodi:version="0.32" xmlns:cc="http://creativecommons.org/ns#" xmlns:dc="http://purl.org/dc/elements/1.1/" xmlns:inkscape="http://www.inkscape.org/namespaces/inkscape" xmlns:rdf="http://www.w3.org/1999/02/22-rdf-syntax-ns#" xmlns:sodipodi="http://sodipodi.sourceforge.net/DTD/sodipodi-0.dtd" xmlns:svg="http://www.w3.org/2000/svg"
	 xmlns="http://www.w3.org/2000/svg" xmlns:xlink="http://www.w3.org/1999/xlink" x="0px" y="0px" viewBox="0 0 41.1 41.2"
	 style="enable-background:new 0 0 41.1 41.2;" xml:space="preserve">
<style type="text/css">
	.st0{fill:#FFFFFF;}
</style>
<defs  style="display:none;">
	
	
		<inkscape:perspective  id="perspective2418" inkscape:persp3d-origin="300 : 400 : 1" inkscape:vp_x="-50 : 600 : 1" inkscape:vp_y="0 : 1000 : 0" inkscape:vp_z="700 : 600 : 1" sodipodi:type="inkscape:persp3d">
		</inkscape:perspective>
	
		<inkscape:perspective  id="perspective10" inkscape:persp3d-origin="300 : 400 : 1" inkscape:vp_x="-50 : 600 : 1" inkscape:vp_y="0 : 1000 : 0" inkscape:vp_z="700 : 600 : 1" sodipodi:type="inkscape:persp3d">
		</inkscape:perspective>
</defs>
<sodipodi:namedview  bordercolor="#666666" borderopacity="1.0" gridtolerance="10000" guidetolerance="10" id="base" inkscape:current-layer="layer1" inkscape:cx="313.67197" inkscape:cy="196.67688" inkscape:document-units="px" inkscape:pageopacity="0.0" inkscape:pageshadow="2" inkscape:window-height="695" inkscape:window-width="838" inkscape:window-x="17" inkscape:window-y="70" inkscape:zoom="1.185" objecttolerance="10" pagecolor="#ffffff" showgrid="false">
	</sodipodi:namedview>
<g id="layer1" inkscape:groupmode="layer" inkscape:label="Layer 1">
	<path id="text2421" d="M18.1-176.9v-3.8c0-3-0.6-8.3-1.9-15.9c-0.6-3.6-1.5-7.4-2.9-11.3c-1.4-4-2.8-7.1-4.3-9.3
		c-1.1-1.7-2.5-2.6-4.1-2.6c-1.8,0-3,0.7-3.8,2.1c-0.6,1.3-1,2.7-1,4.2c0,3.2,1.1,6,3.4,8.6h-5.3c-1.8-2.8-2.8-5.8-2.8-8.9
		c0-3.3,0.9-5.8,2.6-7.7c1.8-1.9,4-2.9,6.6-2.9c3.3,0,5.9,1.4,7.8,4.1c2.1,3.1,3.9,6.9,5.3,11.3c1,3.2,1.8,6.8,2.5,10.7
		c0.7-3.9,1.5-7.5,2.5-10.7c1.3-4.3,3.1-8.1,5.3-11.3c1.9-2.7,4.5-4.1,7.8-4.1c2.6,0,4.8,1,6.6,2.9c1.7,1.9,2.6,4.4,2.6,7.7
		c0,3.1-0.9,6.1-2.8,8.9h-5.3c2.3-2.6,3.4-5.4,3.4-8.6c0-1.5-0.3-2.9-1-4.2c-0.7-1.4-2-2.1-3.8-2.1c-1.6,0-2.9,0.9-4.1,2.6
		c-1.5,2.3-2.9,5.4-4.3,9.3c-1.3,3.9-2.3,7.6-2.9,11.3c-1.3,7.6-1.9,13-1.9,15.9v3.8H18.1"/>
	<path id="text2425" d="M211.1-183c3.5,0.5,6.9,1.1,10.2,2v4.7c-7.4-1.9-15.1-2.8-23.3-2.8c-8.2,0-15.9,0.9-23.3,2.8v-4.7
		c3.3-0.8,6.7-1.5,10.2-2v-35.2c-3.5-0.5-6.9-1.1-10.2-2v-4.7c7.4,1.9,15.1,2.8,23.3,2.8c8.2,0,15.9-0.9,23.3-2.8v4.7
		c-3.3,0.8-6.7,1.5-10.2,2V-183 M206.4-217.7c-2.8,0.2-5.6,0.3-8.4,0.3c-2.9,0-5.7-0.1-8.4-0.3v34.2c2.8-0.2,5.6-0.3,8.4-0.3
		c2.9,0,5.7,0.1,8.4,0.3V-217.7"/>
	<path id="text2429" class="st0" d="M192.5-83h-17.8v-4.7h10.8c-0.8-1-1.4-2-1.9-3.1c-0.8-1.8-1.2-3.6-1.2-5.6c0-2,0.4-3.9,1.2-5.7
		c0.8-1.8,2-3.4,3.4-4.8c1.5-1.4,3.2-2.5,5.1-3.3c1.8-0.7,3.8-1.1,5.9-1.1c2.2,0,4.2,0.4,5.9,1.1c2,0.9,3.7,1.9,5.1,3.3
		c1.5,1.4,2.6,3,3.4,4.8c0.8,1.8,1.2,3.7,1.2,5.7c0,2-0.4,3.9-1.2,5.6c-0.5,1.1-1.1,2.2-1.9,3.1h10.8v4.7h-17.9v-4.7
		c0.8-0.4,1.5-1,2.3-1.6c1-0.9,1.8-2,2.4-3.3c0.5-1.2,0.8-2.5,0.8-3.9c0-1.4-0.3-2.7-0.8-3.9c-0.6-1.2-1.4-2.3-2.4-3.3
		c-1-0.9-2.2-1.6-3.5-2.2c-1.2-0.5-2.6-0.7-4.2-0.8c-1.5,0-2.9,0.3-4.2,0.8c-1.3,0.5-2.5,1.3-3.5,2.2c-1,1-1.8,2.1-2.4,3.3
		c-0.5,1.2-0.8,2.5-0.8,3.9c0,1.4,0.3,2.6,0.8,3.9c0.6,1.2,1.4,2.3,2.4,3.3c0.6,0.6,1.4,1.1,2.2,1.6V-83 M174.7-68.9v-4.7h46.6v4.7
		H174.7"/>
	<path id="text2433" d="M94.8-213c-0.6-1.3-1.4-2.5-2.4-3.6c-1-1-2.1-1.7-3.5-2.4c-1.2-0.5-2.6-0.8-4.2-0.8v-4.7
		c2.1,0,4.1,0.4,5.9,1.2c1.9,0.8,3.6,1.9,5.1,3.4c1.5,1.5,2.6,3.2,3.4,5.1c0.6,1.3,1.4,2.5,2.4,3.6c1,1,2.1,1.8,3.5,2.4
		c1.2,0.5,2.6,0.8,4.2,0.8c1.5,0,2.9-0.3,4.2-0.8c1.3-0.6,2.5-1.4,3.5-2.4c1-1,1.8-2.2,2.4-3.6c0.8-1.9,1.9-3.6,3.4-5.1
		c1.5-1.5,3.2-2.6,5.1-3.4c1.8-0.8,3.8-1.2,5.9-1.2v4.7c-1.6,0-2.9,0.3-4.2,0.8c-1.4,0.6-2.6,1.4-3.5,2.4c-1,1-1.8,2.2-2.4,3.6
		c-0.8,1.9-1.9,3.6-3.4,5.1c-0.7,0.7-1.7,1.5-2.8,2.2c1.2,0.8,2.1,1.5,2.8,2.2c1.5,1.5,2.6,3.2,3.4,5.1c0.8,1.9,1.2,3.9,1.2,6
		c0,2.1-0.4,4.1-1.2,5.9c-0.8,1.9-2,3.6-3.4,5.1c-1.5,1.5-3.2,2.6-5.1,3.4c-1.8,0.8-3.8,1.2-5.9,1.2c-2.3,0-4.2-0.4-5.9-1.2
		c-2-0.9-3.7-2-5.1-3.4c-1.5-1.5-2.6-3.2-3.4-5.1c-0.8-1.9-1.2-3.9-1.2-5.9c0-2.1,0.4-4.2,1.2-6c0.8-2,2-3.7,3.4-5.1
		c0.9-0.9,1.9-1.6,2.9-2.2c-1-0.6-2-1.4-2.9-2.2C96.8-209.3,95.6-211,94.8-213 M113.4-202.5c-1.3-0.5-2.7-0.8-4.2-0.8
		c-1.5,0-2.9,0.3-4.2,0.8c-1.3,0.6-2.5,1.4-3.5,2.4c-1.1,1.1-1.9,2.3-2.4,3.6c-0.5,1.3-0.8,2.7-0.8,4.3c0,1.5,0.3,2.8,0.8,4.2
		c0.5,1.3,1.3,2.4,2.4,3.6c1.1,1,2.2,1.8,3.5,2.4c1.3,0.5,2.7,0.8,4.2,0.8c1.5,0,2.9-0.3,4.2-0.8c1.3-0.6,2.5-1.4,3.5-2.4
		c1.1-1.1,1.9-2.3,2.4-3.6c0.5-1.3,0.8-2.7,0.8-4.2c0-1.5-0.3-2.9-0.8-4.3c-0.5-1.2-1.3-2.4-2.4-3.6
		C115.8-201.2,114.7-202,113.4-202.5"/>
	<path id="text2437" class="st0" d="M122.2-74.6c2.3-2.3,4.1-5,5.3-8c1.2-3,1.8-6.2,1.8-9.5c0-2.9-0.2-5-0.5-6.3c-0.5-2-1.3-3-2.2-3
		c-0.5,0-1.3,1-2.3,2.9c-1.4,2.8-2.1,5.9-2.1,9.4V-74.6 M118.5-66c-0.9,0.5-1.8,0.9-2.8,1.3c-2.3,1-4.8,1.7-7.6,2v-4.7
		c2.1-0.3,4-0.8,5.8-1.6c1.3-0.6,2.5-1.2,3.7-1.9c0-0.5-0.1-1-0.1-1.5v-28.8c0-3.7-0.2-6.5-0.7-8.4c-0.7-2.9-1.5-4.4-2.5-4.4
		c-1,0-2.4,1.9-4.2,5.6c-1.4,2.9-2.1,6.1-2.1,9.4v26.6h-4.7v-28.8c0-3.7-0.2-6.5-0.7-8.4c-0.6-2.9-1.5-4.4-2.5-4.4
		c-1,0-2.4,1.9-4.2,5.6c-1.4,2.9-2.1,6.1-2.1,9.4v26.6h-4.7v-28.8c0-4.4-0.6-8.2-1.7-11.6c-0.6-1.9-1.8-3.9-3.3-5.9h4.8
		c0.8,0.8,1.5,1.8,2.2,3c0.7,1.4,1.3,2.9,1.7,4.6c0.6-1.9,1.5-3.5,2.5-4.8c2.1-2.7,3.8-4.1,5.2-4.1c1.5,0,3.1,1.4,4.7,4.3
		c0.6,1.1,1.2,2.6,1.7,4.6c0.6-1.9,1.5-3.5,2.5-4.8c2.1-2.7,3.9-4.1,5.5-4.1c1.5,0,3.1,1.4,4.7,4.3c0.9,1.5,1.5,3,1.7,4.6
		c0.3,2.2,0.5,4.7,0.6,7.5c0.4-0.9,0.9-1.7,1.6-2.4c1.5-1.8,2.9-2.7,4-2.7c1.7,0,3.1,1.6,4.3,4.9c1.4,3.6,2,7.5,2,11.7
		c0,4.1-0.7,7.8-2.2,11.3c-1.6,3.8-3.8,7-6.5,9.7c-0.9,0.9-1.8,1.7-2.8,2.4c0.2,1,0.5,1.9,0.9,2.8c0.8,2,2.1,3.8,3.8,5.6h-6.1
		c-0.9-1.5-1.6-2.8-2.1-3.8C118.9-64.7,118.7-65.4,118.5-66"/>
	<path id="text2441" class="st0" d="M303.7-63.9c-1.6,0-2.9-0.2-3.9-0.7c-1.1-0.5-2.1-1.1-2.8-1.9c-0.8-0.8-1.5-1.8-1.9-2.8
		c-0.4-1-0.6-2.3-0.6-3.6v-28.8c0-3.7-0.2-6.5-0.7-8.4c-0.7-2.9-1.5-4.4-2.5-4.4c-1,0-2.4,1.9-4.2,5.6c-1.4,2.9-2.1,6.1-2.1,9.4
		v26.6h-4.7v-28.8c0-3.7-0.2-6.5-0.7-8.4c-0.6-2.9-1.5-4.4-2.5-4.4c-1,0-2.4,1.9-4.2,5.6c-1.4,2.9-2.1,6.1-2.1,9.4v26.6h-4.7v-28.8
		c0-4.4-0.6-8.2-1.7-11.6c-0.6-1.9-1.8-3.9-3.3-5.9h4.8c0.8,0.8,1.5,1.8,2.2,3c0.7,1.4,1.3,2.9,1.7,4.6c0.6-1.9,1.5-3.5,2.5-4.8
		c2.1-2.7,3.8-4.1,5.2-4.1c1.5,0,3.1,1.4,4.7,4.3c0.6,1.1,1.2,2.6,1.7,4.6c0.6-1.9,1.5-3.5,2.5-4.8c2.1-2.7,3.9-4.1,5.5-4.1
		c1.5,0,3.1,1.4,4.7,4.3c0.9,1.5,1.5,3,1.7,4.6c0.4,2.9,0.6,5.4,0.6,7.5v31.2c0,0.8,0.1,1.4,0.3,1.8c0.2,0.5,0.5,1,0.9,1.3
		c0.4,0.4,0.8,0.6,1.3,0.8c0.5,0.2,1.2,0.3,2.1,0.3h1.8v-4.1l6.7,6.4l-6.7,6.4v-4.1H303.7"/>
	<path id="text2445" d="M264.1-193.1c1.9,1.2,3.7,2.2,5.5,2.9c4.5,1.9,9.4,2.9,14.8,2.9c3.4,0,6.7-0.4,9.7-1.2
		c-0.3-0.2-0.5-0.5-0.8-0.7c-0.9-1-1.6-2-2.1-3.1c-0.5-1.1-0.7-2.3-0.7-3.6c0-1.2,0.2-2.4,0.7-3.6c0.5-1.2,1.2-2.2,2.1-3.1
		c1-0.9,2-1.6,3-2.1c1.1-0.5,2.3-0.7,3.6-0.7c1.4,0,2.5,0.2,3.6,0.7c1.2,0.5,2.2,1.2,3,2.1c0.9,1,1.6,2,2.1,3.1
		c0.5,1.1,0.7,2.3,0.7,3.6c0,1.3-0.2,2.4-0.7,3.6c-0.5,1.3-1.3,2.3-2.4,3.2c-1.5,1.3-3.3,2.3-5.2,3.1c-5.1,2.2-10.6,3.3-16.6,3.3
		c-6.1,0-11.7-1.1-16.6-3.3c-1.3-0.6-2.5-1.2-3.7-1.8V-193.1 M298.2-191.4c0.5,0.2,1.1,0.3,1.8,0.3c0.6,0,1.2-0.1,1.8-0.3
		c0.6-0.2,1.1-0.6,1.5-1c0.4-0.4,0.8-0.9,1-1.5c0.2-0.6,0.3-1.2,0.3-1.8c0-0.6-0.1-1.2-0.3-1.8c-0.2-0.5-0.6-1.1-1-1.5
		c-0.4-0.4-0.9-0.7-1.5-1c-0.5-0.2-1.1-0.3-1.8-0.3c-0.6,0-1.2,0.1-1.8,0.3c-0.6,0.3-1.1,0.6-1.5,1c-0.4,0.4-0.8,0.9-1,1.5
		c-0.2,0.6-0.3,1.2-0.3,1.8c0,0.6,0.1,1.3,0.3,1.8c0.2,0.5,0.6,1.1,1,1.5C297.1-192,297.6-191.7,298.2-191.4 M309.3-208.1
		c-1.9-1.2-3.7-2.2-5.5-2.9c-4.5-1.9-9.4-2.9-14.8-2.9c-3.4,0-6.7,0.4-9.7,1.2c0.3,0.2,0.5,0.5,0.8,0.7c0.9,1,1.6,2,2.1,3.1
		c0.5,1.1,0.7,2.3,0.7,3.6c0,1.3-0.2,2.4-0.7,3.6c-0.5,1.2-1.2,2.2-2.1,3.1c-1,0.9-2,1.6-3,2.1c-1.1,0.5-2.3,0.7-3.6,0.7
		c-1.4,0-2.5-0.2-3.6-0.7c-1.2-0.5-2.2-1.2-3-2.1c-0.9-1-1.6-2-2.1-3.1c-0.5-1.1-0.7-2.3-0.7-3.6c0-1.2,0.2-2.4,0.7-3.6
		c0.5-1.2,1.3-2.3,2.4-3.2c1.5-1.2,3.3-2.3,5.2-3.1c5.1-2.2,10.6-3.2,16.6-3.3c6.1,0,11.7,1.1,16.6,3.3c1.3,0.6,2.5,1.2,3.7,1.8
		V-208.1 M275.2-209.8c-0.5-0.2-1.1-0.3-1.8-0.3c-0.6,0-1.2,0.1-1.8,0.3c-0.6,0.3-1.1,0.6-1.5,1c-0.4,0.4-0.8,0.9-1,1.5
		c-0.2,0.6-0.3,1.2-0.3,1.8c0,0.6,0.1,1.2,0.3,1.8c0.2,0.5,0.6,1.1,1,1.5c0.4,0.4,0.9,0.7,1.5,1c0.5,0.2,1.1,0.3,1.8,0.3
		c0.6,0,1.2-0.1,1.8-0.3c0.6-0.2,1.1-0.6,1.5-1c0.4-0.4,0.8-0.9,1-1.5c0.2-0.6,0.3-1.2,0.3-1.8c0-0.6-0.1-1.2-0.3-1.8
		c-0.2-0.5-0.6-1.1-1-1.5C276.4-209.2,275.9-209.5,275.2-209.8"/>
	<path id="text2449" class="st0" d="M35.4,8.8L18.5,25.7l8.5,8.5l-3.3,3.3L15.2,29L4.2,40l-3.3-3.3l11.1-11.1l-8.5-8.5l3.3-3.3
		l8.5,8.5L32.1,5.4H19.3V0.8h20.8v20.8h-4.7V8.8"/>
	<path id="text2453" d="M189.9,16.7l-3.6-6.3l-10.8,6.3l-2.3-4L188,4.1l3.6,6.3l10.8-6.3l3.6,6.3l10.8-6.3l5.9,10.3l-4.1,2.3
		l-3.6-6.3l-10.8,6.3l-3.6-6.3L189.9,16.7 M189.9,36.7l-3.6-6.3l-10.8,6.3l-2.3-4l14.9-8.6l3.6,6.3l10.8-6.3l3.6,6.3l10.8-6.3
		l5.9,10.3l-4.1,2.3l-3.6-6.3l-10.8,6.3l-3.6-6.3L189.9,36.7"/>
	<path id="text2457" class="st0" d="M27.9-76.6c-0.2,0.7-0.3,1.3-0.3,1.8c0,0.7,0.1,1.3,0.3,1.8c0.2,0.5,0.5,1,0.9,1.3
		c0.4,0.4,0.8,0.6,1.3,0.8c0.5,0.2,1.2,0.3,2.1,0.3c0.9,0,1.6-0.1,2.3-0.4c0.8-0.4,1.5-0.8,2.1-1.3l3.3,3.3
		c-0.9,0.9-2.1,1.7-3.6,2.4c-1.1,0.5-2.4,0.8-4,0.8c-1.6,0-2.9-0.2-3.9-0.7c-1.1-0.5-2.1-1.1-2.8-1.9c-0.8-0.8-1.5-1.8-1.9-2.8
		c-0.4-1-0.6-2.2-0.6-3.6c0-1.5,0.2-2.8,0.7-3.9c1.6-3.9,3.1-6.8,4.6-8.8c1.9-2.5,3.3-5.1,4.3-7.9c0.5-1.2,0.7-2.6,0.7-4.2
		c0-1.7-0.2-3.1-0.7-4.2c-0.4-1.1-1.1-2.1-2.1-3.1c-0.8-0.8-1.8-1.5-3-2.1c-1-0.5-2.2-0.7-3.6-0.7c-1.3,0-2.5,0.2-3.6,0.7
		c-1,0.4-2.1,1.1-3,2.1c-0.9,0.9-1.6,1.9-2.1,3.1c-0.5,1.1-0.7,2.3-0.7,3.6c0,1.4,0.2,2.5,0.7,3.6c0.6,1.2,1.4,2.8,2.4,4.6
		c1.4,2.4,2.1,4.8,2.1,6.9c0,1.3-0.2,2.4-0.7,3.6c-0.4,1.1-1.1,2.1-2.1,3.1c-0.8,0.8-1.8,1.5-3,2.1c-1,0.5-2.2,0.7-3.6,0.7
		c-1.3,0-2.5-0.2-3.6-0.7c-1-0.4-2.1-1.1-3-2.1c-0.9-0.9-1.6-1.9-2.1-3.1c-0.5-1.1-0.7-2.3-0.7-3.6c0-1.3,0.2-2.5,0.7-3.6
		c0.4-1.1,1.1-2.1,2.1-3.1c0.8-0.8,1.8-1.5,3-2.1c1-0.5,2.2-0.7,3.6-0.7H11c-0.7-1.6-1.1-3.5-1.1-5.7c0-2,0.3-3.8,1-5.4
		c0.7-1.7,1.8-3.3,3.1-4.6c1.3-1.3,2.8-2.3,4.6-3.1c1.6-0.7,3.4-1,5.3-1c2,0,3.8,0.3,5.3,1c1.8,0.8,3.3,1.8,4.6,3.1
		c1.4,1.4,2.4,2.9,3.1,4.6c0.7,1.7,1,3.7,1,6.1c0,2.3-0.3,4.3-1,6c-1.3,3.1-2.9,6-4.8,8.7C30-81.8,28.6-79.1,27.9-76.6 M12.3-89.5
		c-0.5-0.2-1.1-0.3-1.8-0.3c-0.6,0-1.2,0.1-1.8,0.3c-0.6,0.3-1.1,0.6-1.5,1c-0.5,0.5-0.8,1-1,1.5c-0.2,0.6-0.3,1.2-0.3,1.8
		c0,0.6,0.1,1.2,0.3,1.8c0.2,0.5,0.6,1.1,1,1.5c0.5,0.4,1,0.8,1.5,1c0.5,0.2,1.1,0.3,1.8,0.3c0.6,0,1.2-0.1,1.8-0.3
		c0.6-0.2,1.1-0.6,1.5-1c0.5-0.5,0.8-1,1-1.5c0.2-0.6,0.3-1.2,0.3-1.8c0-0.6-0.1-1.2-0.3-1.8c-0.2-0.5-0.6-1.1-1-1.5
		C13.3-88.9,12.8-89.2,12.3-89.5"/>
	<path id="text2461" d="M110.6,29.8c-0.4-0.6-0.7-1.2-1.1-1.8c-1.7-3.2-2.5-6.7-2.5-10.5v-2.6c0-3.7-0.2-6.5-0.7-8.4
		c-0.7-2.9-1.5-4.4-2.5-4.4c-1,0-2.4,1.9-4.2,5.6c-1.4,2.9-2.1,6.1-2.1,9.4v7.8h-4.7v-10c0-3.7-0.3-6.5-0.8-8.4
		c-0.8-2.9-2.5-4.4-5-4.4h-2.3v-5.9h2.6c3.1,0,5.6,1.4,7.2,4.3c0.9,1.6,1.5,3.1,1.8,4.6c0.6-1.9,1.5-3.5,2.5-4.8
		c2.1-2.7,3.9-4.1,5.5-4.1c1.5,0,3.1,1.4,4.7,4.3c0.9,1.5,1.5,3,1.7,4.6c0.4,2.9,0.6,5.4,0.6,7.5V16c0,3,0.4,5.5,1.2,7.7
		c0.8-1.7,1.6-3,2.6-4c0.9-1,2.2-1.7,3.8-2.4c1.2-0.5,2.7-0.7,4.3-0.8c1.4,0,2.7,0.3,3.9,0.8c1.2,0.5,2.3,1.2,3.3,2.2
		c1,1,1.7,2.1,2.2,3.3c0.5,1.2,0.7,2.5,0.8,3.9c0,1.4-0.3,2.6-0.8,3.9c-0.5,1.3-1.3,2.4-2.2,3.3c-0.9,0.9-2,1.6-3.3,2.2
		c-1.1,0.5-2.5,0.8-4.2,0.8c-1.7,0-3.3-0.3-4.8-0.8c-1.5-0.5-2.9-1.3-4.2-2.3c-0.4,0.9-0.7,1.8-1.1,2.6c-0.9,1.8-2,3.3-3.3,4.3
		c-1.6,1.4-3.2,2.3-4.6,2.9c-1.7,0.7-3.5,1-5.4,1H98v-4.7h1.8c1.4,0,2.6-0.2,3.6-0.7c1.2-0.5,2.2-1.1,3-1.9c0.9-0.8,1.6-1.7,2.2-2.8
		C109.1,33.4,109.8,31.8,110.6,29.8 M115.9,28.6c1.6,1.7,3.1,2.8,4.5,3.2c0.9,0.3,1.9,0.4,2.8,0.4c1,0,1.8-0.1,2.4-0.4
		c0.7-0.3,1.3-0.7,1.8-1.2c0.5-0.5,0.9-1.1,1.2-1.8c0.3-0.6,0.4-1.3,0.4-2.1c0-0.7-0.1-1.5-0.4-2.1c-0.3-0.6-0.7-1.2-1.2-1.8
		c-0.5-0.5-1.1-0.9-1.8-1.2c-0.6-0.3-1.3-0.4-2.1-0.4c-0.7,0-1.4,0.1-2.2,0.4c-0.9,0.3-1.5,0.7-1.9,1.2
		C117.9,24.5,116.7,26.4,115.9,28.6"/>
	<path id="text2465" d="M291.6,22.8h-9.8c-0.3,4.1-1.1,8-2.6,11.5c-1.4,3.3-3.3,6.4-5.9,9.4h-6.5c3.8-3.7,6.5-7.5,8-11.3
		c1.2-3.1,2-6.3,2.2-9.7h-9.3v-4.7h9.3c-0.2-3.4-1-6.6-2.2-9.7c-1.5-3.8-4.2-7.6-8-11.3h6.5c2.5,3,4.5,6.2,5.9,9.5
		c1.5,3.6,2.4,7.4,2.6,11.5h9.8c0.2-4.1,1.1-8,2.6-11.5c1.4-3.3,3.3-6.4,5.9-9.5h6.5c-3.8,3.7-6.5,7.5-8,11.3
		c-1.3,3.1-2,6.3-2.2,9.7h9v4.7h-9c0.2,3.4,1,6.6,2.2,9.7c1.5,3.8,4.2,7.5,8,11.3h-6.5c-2.6-3-4.5-6.2-5.9-9.4
		C292.7,30.7,291.9,26.8,291.6,22.8"/>
	<text transform="matrix(1 0 0 1 2.5794 -149.6682)" style="font-family:'ArialMT'; font-size:16px;">Aries</text>
	<text transform="matrix(1 0 0 1 85.6302 -149.6682)" style="font-family:'ArialMT'; font-size:16px;">Taurus</text>
	<text transform="matrix(1 0 0 1 172.931 -149.6682)" style="font-family:'ArialMT'; font-size:16px;">Gemini</text>
	<text transform="matrix(1 0 0 1 260.4935 -149.6682)" style="font-family:'ArialMT'; font-size:16px;">Cancer</text>
	<text transform="matrix(1 0 0 1 6.7747 -36.6535)" style="font-family:'ArialMT'; font-size:16px;">Leo</text>
	<text transform="matrix(1 0 0 1 91.0638 -36.6535)" style="font-family:'ArialMT'; font-size:16px;">Virgo</text>
	<text transform="matrix(1 0 0 1 180.1458 -36.6535)" style="font-family:'ArialMT'; font-size:16px;">Libra</text>
	<text transform="matrix(1 0 0 1 259.5052 -36.6535)" style="font-family:'ArialMT'; font-size:16px;">Scorpio</text>
	<text transform="matrix(1 0 0 1 262.7708 79.4626)" style="font-family:'ArialMT'; font-size:16px;">Pisces</text>
	<text transform="matrix(1 0 0 1 166.7318 79.4626)" style="font-family:'ArialMT'; font-size:16px;">Aquarius</text>
	<text transform="matrix(1 0 0 1 74.7826 79.4626)" style="font-family:'ArialMT'; font-size:16px;">Capricorn</text>
	<text transform="matrix(1 0 0 1 -17.4557 79.4626)" style="font-family:'ArialMT'; font-size:16px;">Sagittarius</text>
</g>
</svg>
