<?xml version="1.0" encoding="utf-8"?>
<!-- Generator: Adobe Illustrator 22.0.1, SVG Export Plug-In . SVG Version: 6.00 Build 0)  -->
<svg version="1.1"
	 id="svg2" inkscape:output_extension="org.inkscape.output.svg.inkscape" inkscape:version="0.45+devel" sodipodi:docname="Astro_signs.svg" sodipodi:version="0.32" xmlns:cc="http://creativecommons.org/ns#" xmlns:dc="http://purl.org/dc/elements/1.1/" xmlns:inkscape="http://www.inkscape.org/namespaces/inkscape" xmlns:rdf="http://www.w3.org/1999/02/22-rdf-syntax-ns#" xmlns:sodipodi="http://sodipodi.sourceforge.net/DTD/sodipodi-0.dtd" xmlns:svg="http://www.w3.org/2000/svg"
	 xmlns="http://www.w3.org/2000/svg" xmlns:xlink="http://www.w3.org/1999/xlink" x="0px" y="0px" viewBox="0 0 50.9 59.6"
	 style="enable-background:new 0 0 50.9 59.6;" xml:space="preserve">
<style type="text/css">
	.st0{fill:#FFFFFF;}
</style>
<defs  style="display:none;">
	
	
		<inkscape:perspective  id="perspective2418" inkscape:persp3d-origin="300 : 400 : 1" inkscape:vp_x="-50 : 600 : 1" inkscape:vp_y="0 : 1000 : 0" inkscape:vp_z="700 : 600 : 1" sodipodi:type="inkscape:persp3d">
		</inkscape:perspective>
	
		<inkscape:perspective  id="perspective10" inkscape:persp3d-origin="300 : 400 : 1" inkscape:vp_x="-50 : 600 : 1" inkscape:vp_y="0 : 1000 : 0" inkscape:vp_z="700 : 600 : 1" sodipodi:type="inkscape:persp3d">
		</inkscape:perspective>
</defs>
<sodipodi:namedview  bordercolor="#666666" borderopacity="1.0" gridtolerance="10000" guidetolerance="10" id="base" inkscape:current-layer="layer1" inkscape:cx="313.67197" inkscape:cy="196.67688" inkscape:document-units="px" inkscape:pageopacity="0.0" inkscape:pageshadow="2" inkscape:window-height="695" inkscape:window-width="838" inkscape:window-x="17" inkscape:window-y="70" inkscape:zoom="1.185" objecttolerance="10" pagecolor="#ffffff" showgrid="false">
	</sodipodi:namedview>
<g id="layer1" inkscape:groupmode="layer" inkscape:label="Layer 1">
	<path id="text2421" d="M-66-57v-3.8c0-3-0.6-8.3-1.9-15.9c-0.6-3.6-1.5-7.4-2.9-11.3c-1.4-4-2.8-7.1-4.3-9.3
		c-1.1-1.7-2.5-2.6-4.1-2.6c-1.8,0-3,0.7-3.8,2.1c-0.6,1.3-1,2.7-1,4.2c0,3.2,1.1,6,3.4,8.6h-5.3c-1.8-2.8-2.8-5.8-2.8-8.9
		c0-3.3,0.9-5.8,2.6-7.7c1.8-1.9,4-2.9,6.6-2.9c3.3,0,5.9,1.4,7.8,4.1c2.1,3.1,3.9,6.9,5.3,11.3c1,3.2,1.8,6.8,2.5,10.7
		c0.7-3.9,1.5-7.5,2.5-10.7c1.3-4.3,3.1-8.1,5.3-11.3c1.9-2.7,4.5-4.1,7.8-4.1c2.6,0,4.8,1,6.6,2.9c1.7,1.9,2.6,4.4,2.6,7.7
		c0,3.1-0.9,6.1-2.8,8.9h-5.3c2.3-2.6,3.4-5.4,3.4-8.6c0-1.5-0.3-2.9-1-4.2c-0.7-1.4-2-2.1-3.8-2.1c-1.6,0-2.9,0.9-4.1,2.6
		c-1.5,2.3-2.9,5.4-4.3,9.3c-1.3,3.9-2.3,7.6-2.9,11.3c-1.3,7.6-1.9,13-1.9,15.9v3.8H-66"/>
	<path id="text2425" d="M127-63.2c3.5,0.5,6.9,1.1,10.2,2v4.7c-7.4-1.9-15.1-2.8-23.3-2.8c-8.2,0-15.9,0.9-23.3,2.8v-4.7
		c3.3-0.8,6.7-1.5,10.2-2v-35.2c-3.5-0.5-6.9-1.1-10.2-2v-4.7c7.4,1.9,15.1,2.8,23.3,2.8c8.2,0,15.9-0.9,23.3-2.8v4.7
		c-3.3,0.8-6.7,1.5-10.2,2V-63.2 M122.3-97.8c-2.8,0.2-5.6,0.3-8.4,0.3c-2.9,0-5.7-0.1-8.4-0.3v34.2c2.8-0.2,5.6-0.3,8.4-0.3
		c2.9,0,5.7,0.1,8.4,0.3V-97.8"/>
	<path id="text2429" d="M108.4,36.9H90.5v-4.7h10.8c-0.8-1-1.4-2-1.9-3.1c-0.8-1.8-1.2-3.6-1.2-5.6c0-2,0.4-3.9,1.2-5.7
		c0.8-1.8,2-3.4,3.4-4.8c1.5-1.4,3.2-2.5,5.1-3.3c1.8-0.7,3.8-1.1,5.9-1.1c2.2,0,4.2,0.4,5.9,1.1c2,0.9,3.7,1.9,5.1,3.3
		c1.5,1.4,2.6,3,3.4,4.8c0.8,1.8,1.2,3.7,1.2,5.7c0,2-0.4,3.9-1.2,5.6c-0.5,1.1-1.1,2.2-1.9,3.1h10.8v4.7h-17.9v-4.7
		c0.8-0.4,1.5-1,2.3-1.6c1-0.9,1.8-2,2.4-3.3c0.5-1.2,0.8-2.5,0.8-3.9c0-1.4-0.3-2.7-0.8-3.9c-0.6-1.2-1.4-2.3-2.4-3.3
		c-1-0.9-2.2-1.6-3.5-2.2c-1.2-0.5-2.6-0.7-4.2-0.8c-1.5,0-2.9,0.3-4.2,0.8c-1.3,0.5-2.5,1.3-3.5,2.2c-1,1-1.8,2.1-2.4,3.3
		c-0.5,1.2-0.8,2.5-0.8,3.9c0,1.4,0.3,2.6,0.8,3.9c0.6,1.2,1.4,2.3,2.4,3.3c0.6,0.6,1.4,1.1,2.2,1.6V36.9 M90.5,51v-4.7h46.6V51
		H90.5"/>
	<path id="text2433" d="M10.6-93.2c-0.6-1.3-1.4-2.5-2.4-3.6c-1-1-2.1-1.7-3.5-2.4c-1.2-0.5-2.6-0.8-4.2-0.8v-4.7
		c2.1,0,4.1,0.4,5.9,1.2c1.9,0.8,3.6,1.9,5.1,3.4c1.5,1.5,2.6,3.2,3.4,5.1c0.6,1.3,1.4,2.5,2.4,3.6c1,1,2.1,1.8,3.5,2.4
		c1.2,0.5,2.6,0.8,4.2,0.8c1.5,0,2.9-0.3,4.2-0.8c1.3-0.6,2.5-1.4,3.5-2.4c1-1,1.8-2.2,2.4-3.6c0.8-1.9,1.9-3.6,3.4-5.1
		c1.5-1.5,3.2-2.6,5.1-3.4c1.8-0.8,3.8-1.2,5.9-1.2v4.7c-1.6,0-2.9,0.3-4.2,0.8c-1.4,0.6-2.6,1.4-3.5,2.4c-1,1-1.8,2.2-2.4,3.6
		c-0.8,1.9-1.9,3.6-3.4,5.1c-0.7,0.7-1.7,1.5-2.8,2.2c1.2,0.8,2.1,1.5,2.8,2.2c1.5,1.5,2.6,3.2,3.4,5.1c0.8,1.9,1.2,3.9,1.2,6
		c0,2.1-0.4,4.1-1.2,5.9c-0.8,1.9-2,3.6-3.4,5.1c-1.5,1.5-3.2,2.6-5.1,3.4c-1.8,0.8-3.8,1.2-5.9,1.2c-2.3,0-4.2-0.4-5.9-1.2
		c-2-0.9-3.7-2-5.1-3.4c-1.5-1.5-2.6-3.2-3.4-5.1c-0.8-1.9-1.2-3.9-1.2-5.9c0-2.1,0.4-4.2,1.2-6c0.8-2,2-3.7,3.4-5.1
		c0.9-0.9,1.9-1.6,2.9-2.2c-1-0.6-2-1.4-2.9-2.2C12.6-89.5,11.5-91.2,10.6-93.2 M29.2-82.7c-1.3-0.5-2.7-0.8-4.2-0.8
		c-1.5,0-2.9,0.3-4.2,0.8c-1.3,0.6-2.5,1.4-3.5,2.4c-1.1,1.1-1.9,2.3-2.4,3.6c-0.5,1.3-0.8,2.7-0.8,4.3c0,1.5,0.3,2.8,0.8,4.2
		c0.5,1.3,1.3,2.4,2.4,3.6c1.1,1,2.2,1.8,3.5,2.4c1.3,0.5,2.7,0.8,4.2,0.8c1.5,0,2.9-0.3,4.2-0.8c1.3-0.6,2.5-1.4,3.5-2.4
		c1.1-1.1,1.9-2.3,2.4-3.6c0.5-1.3,0.8-2.7,0.8-4.2c0-1.5-0.3-2.9-0.8-4.3c-0.5-1.2-1.3-2.4-2.4-3.6C31.7-81.3,30.5-82.1,29.2-82.7"
		/>
	<path id="text2437" class="st0" d="M38.1,45.2c2.3-2.3,4.1-5,5.3-8c1.2-3,1.8-6.2,1.8-9.5c0-2.9-0.2-5-0.5-6.3c-0.5-2-1.3-3-2.3-3
		c-0.5,0-1.3,1-2.3,2.9c-1.4,2.8-2.1,5.9-2.1,9.4V45.2 M34.3,53.8c-0.9,0.5-1.8,0.9-2.8,1.3c-2.3,1-4.8,1.7-7.6,2v-4.7
		c2.1-0.3,4-0.8,5.8-1.6c1.3-0.6,2.5-1.2,3.7-1.9c0-0.5-0.1-1-0.1-1.5V18.7c0-3.7-0.2-6.5-0.7-8.4c-0.7-2.9-1.5-4.4-2.5-4.4
		c-1,0-2.4,1.9-4.2,5.6c-1.4,2.9-2.1,6.1-2.1,9.4v26.6h-4.7V18.7c0-3.7-0.2-6.5-0.7-8.4c-0.6-2.9-1.5-4.4-2.5-4.4
		c-1,0-2.4,1.9-4.2,5.6c-1.4,2.9-2.1,6.1-2.1,9.4v26.6H5.3V18.7c0-4.4-0.6-8.2-1.7-11.6C2.9,5.1,1.8,3.2,0.3,1.2h4.8
		C5.9,2,6.6,3,7.2,4.2c0.7,1.4,1.3,2.9,1.7,4.6C9.5,7,10.4,5.4,11.4,4c2.1-2.7,3.8-4.1,5.2-4.1c1.5,0,3.1,1.4,4.7,4.3
		c0.6,1.1,1.2,2.6,1.7,4.6C23.6,7,24.4,5.4,25.5,4c2.1-2.7,3.9-4.1,5.5-4.1c1.5,0,3.1,1.4,4.7,4.3c0.9,1.5,1.5,3,1.7,4.6
		c0.3,2.2,0.5,4.7,0.6,7.5c0.4-0.9,0.9-1.7,1.6-2.4c1.5-1.8,2.9-2.7,4-2.7c1.7,0,3.1,1.6,4.3,4.9c1.4,3.6,2,7.5,2,11.7
		c0,4.1-0.7,7.8-2.2,11.3c-1.6,3.8-3.8,7-6.5,9.7c-0.9,0.9-1.8,1.7-2.8,2.4c0.2,1,0.5,1.9,0.9,2.8c0.8,2,2.1,3.8,3.8,5.6h-6.1
		c-0.9-1.5-1.6-2.8-2.1-3.8C34.7,55.1,34.5,54.5,34.3,53.8"/>
	<path id="text2441" d="M219.5,55.9c-1.6,0-2.9-0.2-3.9-0.7c-1.1-0.5-2.1-1.1-2.8-1.9c-0.8-0.8-1.5-1.8-1.9-2.8
		c-0.4-1-0.6-2.3-0.6-3.6V18.2c0-3.7-0.2-6.5-0.7-8.4c-0.7-2.9-1.5-4.4-2.5-4.4c-1,0-2.4,1.9-4.2,5.6c-1.4,2.9-2.1,6.1-2.1,9.4V47
		h-4.7V18.2c0-3.7-0.2-6.5-0.7-8.4c-0.6-2.9-1.5-4.4-2.5-4.4c-1,0-2.4,1.9-4.2,5.6c-1.4,2.9-2.1,6.1-2.1,9.4V47h-4.7V18.2
		c0-4.4-0.6-8.2-1.7-11.6c-0.6-1.9-1.8-3.9-3.3-5.9h4.8c0.8,0.8,1.5,1.8,2.2,3c0.7,1.4,1.3,2.9,1.7,4.6c0.6-1.9,1.5-3.5,2.5-4.8
		c2.1-2.7,3.8-4.1,5.2-4.1c1.5,0,3.1,1.4,4.7,4.3c0.6,1.1,1.2,2.6,1.7,4.6c0.6-1.9,1.5-3.5,2.5-4.8c2.1-2.7,3.9-4.1,5.5-4.1
		c1.5,0,3.1,1.4,4.7,4.3c0.9,1.5,1.5,3,1.7,4.6c0.4,2.9,0.6,5.4,0.6,7.5V47c0,0.8,0.1,1.4,0.3,1.8c0.2,0.5,0.5,1,0.9,1.3
		c0.4,0.4,0.8,0.6,1.3,0.8c0.5,0.2,1.2,0.3,2.1,0.3h1.8v-4.1l6.7,6.4l-6.7,6.4v-4.1H219.5"/>
	<path id="text2445" d="M180-73.3c1.9,1.2,3.7,2.2,5.5,2.9c4.5,1.9,9.4,2.9,14.8,2.9c3.4,0,6.7-0.4,9.7-1.2
		c-0.3-0.2-0.5-0.5-0.8-0.7c-0.9-1-1.6-2-2.1-3.1c-0.5-1.1-0.7-2.3-0.7-3.6c0-1.2,0.2-2.4,0.7-3.6c0.5-1.2,1.2-2.2,2.1-3.1
		c1-0.9,2-1.6,3-2.1c1.1-0.5,2.3-0.7,3.6-0.7c1.4,0,2.5,0.2,3.6,0.7c1.2,0.5,2.2,1.2,3,2.1c0.9,1,1.6,2,2.1,3.1
		c0.5,1.1,0.7,2.3,0.7,3.6c0,1.3-0.2,2.4-0.7,3.6c-0.5,1.3-1.3,2.3-2.4,3.2c-1.5,1.3-3.3,2.3-5.2,3.1c-5.1,2.2-10.6,3.3-16.6,3.3
		c-6.1,0-11.7-1.1-16.6-3.3c-1.3-0.6-2.5-1.2-3.7-1.8V-73.3 M214.1-71.5c0.5,0.2,1.1,0.3,1.8,0.3c0.6,0,1.2-0.1,1.8-0.3
		c0.6-0.2,1.1-0.6,1.5-1c0.4-0.4,0.8-0.9,1-1.5c0.2-0.6,0.3-1.2,0.3-1.8c0-0.6-0.1-1.2-0.3-1.8c-0.2-0.5-0.6-1.1-1-1.5
		c-0.4-0.4-0.9-0.7-1.5-1c-0.5-0.2-1.1-0.3-1.8-0.3c-0.6,0-1.2,0.1-1.8,0.3c-0.6,0.3-1.1,0.6-1.5,1c-0.4,0.4-0.8,0.9-1,1.5
		c-0.2,0.6-0.3,1.2-0.3,1.8c0,0.6,0.1,1.3,0.3,1.8c0.2,0.5,0.6,1.1,1,1.5C212.9-72.2,213.4-71.8,214.1-71.5 M225.2-88.2
		c-1.9-1.2-3.7-2.2-5.5-2.9c-4.5-1.9-9.4-2.9-14.8-2.9c-3.4,0-6.7,0.4-9.7,1.2c0.3,0.2,0.5,0.5,0.8,0.7c0.9,1,1.6,2,2.1,3.1
		c0.5,1.1,0.7,2.3,0.7,3.6c0,1.3-0.2,2.4-0.7,3.6c-0.5,1.2-1.2,2.2-2.1,3.1c-1,0.9-2,1.6-3,2.1c-1.1,0.5-2.3,0.7-3.6,0.7
		c-1.4,0-2.5-0.2-3.6-0.7c-1.2-0.5-2.2-1.2-3-2.1c-0.9-1-1.6-2-2.1-3.1c-0.5-1.1-0.7-2.3-0.7-3.6c0-1.2,0.2-2.4,0.7-3.6
		c0.5-1.2,1.3-2.3,2.4-3.2c1.5-1.2,3.3-2.3,5.2-3.1c5.1-2.2,10.6-3.2,16.6-3.3c6.1,0,11.7,1.1,16.6,3.3c1.3,0.6,2.5,1.2,3.7,1.8
		V-88.2 M191.1-90c-0.5-0.2-1.1-0.3-1.8-0.3c-0.6,0-1.2,0.1-1.8,0.3c-0.6,0.3-1.1,0.6-1.5,1c-0.4,0.4-0.8,0.9-1,1.5
		c-0.2,0.6-0.3,1.2-0.3,1.8c0,0.6,0.1,1.2,0.3,1.8c0.2,0.5,0.6,1.1,1,1.5c0.4,0.4,0.9,0.7,1.5,1c0.5,0.2,1.1,0.3,1.8,0.3
		c0.6,0,1.2-0.1,1.8-0.3c0.6-0.2,1.1-0.6,1.5-1c0.4-0.4,0.8-0.9,1-1.5c0.2-0.6,0.3-1.2,0.3-1.8c0-0.6-0.1-1.2-0.3-1.8
		c-0.2-0.5-0.6-1.1-1-1.5C192.2-89.3,191.7-89.7,191.1-90"/>
	<path id="text2449" d="M-48.7,128.6l-16.9,16.9l8.5,8.5l-3.3,3.3l-8.5-8.5L-80,159.9l-3.3-3.3l11.1-11.1l-8.5-8.5l3.3-3.3l8.5,8.5
		l16.9-16.9h-12.8v-4.7H-44v20.8h-4.7V128.6"/>
	<path id="text2453" d="M105.8,136.6l-3.6-6.3l-10.8,6.3l-2.3-4l14.9-8.6l3.6,6.3l10.8-6.3l3.6,6.3l10.8-6.3l5.9,10.3l-4.1,2.3
		l-3.6-6.3l-10.8,6.3l-3.6-6.3L105.8,136.6 M105.8,156.6l-3.6-6.3l-10.8,6.3l-2.3-4l14.9-8.6l3.6,6.3l10.8-6.3l3.6,6.3l10.8-6.3
		l5.9,10.3l-4.1,2.3l-3.6-6.3l-10.8,6.3l-3.6-6.3L105.8,156.6"/>
	<path id="text2457" class="st0" d="M-56.2,43.2c-0.2,0.7-0.3,1.3-0.3,1.8c0,0.7,0.1,1.3,0.3,1.8c0.2,0.5,0.5,1,0.9,1.3
		c0.4,0.4,0.8,0.6,1.3,0.8c0.5,0.2,1.2,0.3,2.1,0.3c0.9,0,1.6-0.1,2.3-0.4c0.8-0.4,1.5-0.8,2.1-1.3l3.3,3.3
		c-0.9,0.9-2.1,1.7-3.6,2.4c-1.1,0.5-2.4,0.8-4,0.8c-1.6,0-2.9-0.2-3.9-0.7c-1.1-0.5-2.1-1.1-2.8-1.9c-0.8-0.8-1.5-1.8-1.9-2.8
		c-0.4-1-0.6-2.2-0.6-3.6c0-1.5,0.2-2.8,0.7-3.9c1.6-3.9,3.1-6.8,4.6-8.8c1.9-2.5,3.3-5.1,4.3-7.9c0.5-1.2,0.7-2.6,0.7-4.2
		c0-1.7-0.2-3.1-0.7-4.2c-0.4-1.1-1.1-2.1-2.1-3.1c-0.8-0.8-1.8-1.5-3-2.1c-1-0.5-2.2-0.7-3.6-0.7c-1.3,0-2.5,0.2-3.6,0.7
		c-1,0.4-2.1,1.1-3,2.1c-0.9,0.9-1.6,1.9-2.1,3.1c-0.5,1.1-0.7,2.3-0.7,3.6c0,1.4,0.2,2.5,0.7,3.6c0.6,1.2,1.4,2.8,2.4,4.6
		c1.4,2.4,2.1,4.8,2.1,6.9c0,1.3-0.2,2.4-0.7,3.6c-0.4,1.1-1.1,2.1-2.1,3.1c-0.8,0.8-1.8,1.5-3,2.1c-1,0.5-2.2,0.7-3.6,0.7
		c-1.3,0-2.5-0.2-3.6-0.7c-1-0.4-2.1-1.1-3-2.1c-0.9-0.9-1.6-1.9-2.1-3.1c-0.5-1.1-0.7-2.3-0.7-3.6c0-1.3,0.2-2.5,0.7-3.6
		c0.4-1.1,1.1-2.1,2.1-3.1c0.8-0.8,1.8-1.5,3-2.1c1-0.5,2.2-0.7,3.6-0.7h0.5c-0.7-1.6-1.1-3.5-1.1-5.7c0-2,0.3-3.8,1-5.4
		c0.7-1.7,1.8-3.3,3.1-4.6c1.3-1.3,2.8-2.3,4.6-3.1c1.6-0.7,3.4-1,5.3-1c2,0,3.8,0.3,5.3,1c1.8,0.8,3.3,1.8,4.6,3.1
		c1.4,1.4,2.4,2.9,3.1,4.6c0.7,1.7,1,3.7,1,6.1c0,2.3-0.3,4.3-1,6c-1.3,3.1-2.9,6-4.8,8.7C-54.1,38-55.5,40.8-56.2,43.2 M-71.9,30.4
		c-0.5-0.2-1.1-0.3-1.8-0.3c-0.6,0-1.2,0.1-1.8,0.3c-0.6,0.3-1.1,0.6-1.5,1c-0.5,0.5-0.8,1-1,1.5c-0.2,0.6-0.3,1.2-0.3,1.8
		c0,0.6,0.1,1.2,0.3,1.8c0.2,0.5,0.6,1.1,1,1.5c0.5,0.4,1,0.8,1.5,1c0.5,0.2,1.1,0.3,1.8,0.3c0.6,0,1.2-0.1,1.8-0.3
		c0.6-0.2,1.1-0.6,1.5-1c0.5-0.5,0.8-1,1-1.5c0.2-0.6,0.3-1.2,0.3-1.8c0-0.6-0.1-1.2-0.3-1.8c-0.2-0.5-0.6-1.1-1-1.5
		C-70.8,31-71.3,30.6-71.9,30.4"/>
	<path id="text2461" d="M26.4,149.6c-0.4-0.6-0.7-1.2-1.1-1.8c-1.7-3.2-2.5-6.7-2.5-10.5v-2.6c0-3.7-0.2-6.5-0.7-8.4
		c-0.7-2.9-1.5-4.4-2.5-4.4c-1,0-2.4,1.9-4.2,5.6c-1.4,2.9-2.1,6.1-2.1,9.4v7.8H8.8v-10c0-3.7-0.3-6.5-0.8-8.4
		c-0.8-2.9-2.5-4.4-5-4.4H0.7V116h2.6c3.1,0,5.6,1.4,7.2,4.3c0.9,1.6,1.5,3.1,1.8,4.6c0.6-1.9,1.5-3.5,2.5-4.8
		c2.1-2.7,3.9-4.1,5.5-4.1c1.5,0,3.1,1.4,4.7,4.3c0.9,1.5,1.5,3,1.7,4.6c0.4,2.9,0.6,5.4,0.6,7.5v3.5c0,3,0.4,5.5,1.2,7.7
		c0.8-1.7,1.6-3,2.6-4c0.9-1,2.2-1.7,3.8-2.4c1.2-0.5,2.7-0.7,4.3-0.8c1.4,0,2.7,0.3,3.9,0.8c1.2,0.5,2.3,1.2,3.3,2.2
		c1,1,1.7,2.1,2.2,3.3c0.5,1.2,0.7,2.5,0.8,3.9c0,1.4-0.3,2.6-0.8,3.9c-0.5,1.3-1.3,2.4-2.2,3.3c-0.9,0.9-2,1.6-3.3,2.2
		c-1.1,0.5-2.5,0.8-4.2,0.8c-1.7,0-3.3-0.3-4.8-0.8c-1.5-0.5-2.9-1.3-4.2-2.3c-0.4,0.9-0.7,1.8-1.1,2.6c-0.9,1.8-2,3.3-3.3,4.3
		c-1.6,1.4-3.2,2.3-4.6,2.9c-1.7,0.7-3.5,1-5.4,1h-1.8v-4.7h1.8c1.4,0,2.6-0.2,3.6-0.7c1.2-0.5,2.2-1.1,3-1.9
		c0.9-0.8,1.6-1.7,2.2-2.8C25,153.2,25.7,151.6,26.4,149.6 M31.7,148.4c1.6,1.7,3.1,2.8,4.5,3.2c0.9,0.3,1.9,0.4,2.8,0.4
		c1,0,1.8-0.1,2.4-0.4c0.7-0.3,1.3-0.7,1.8-1.2c0.5-0.5,0.9-1.1,1.2-1.8c0.3-0.6,0.4-1.3,0.4-2.1c0-0.7-0.1-1.5-0.4-2.1
		c-0.3-0.6-0.7-1.2-1.2-1.8c-0.5-0.5-1.1-0.9-1.8-1.2c-0.6-0.3-1.3-0.4-2.1-0.4c-0.7,0-1.4,0.1-2.2,0.4c-0.9,0.3-1.5,0.7-1.9,1.2
		C33.7,144.3,32.6,146.2,31.7,148.4"/>
	<path id="text2465" d="M207.5,142.6h-9.8c-0.3,4.1-1.1,8-2.6,11.5c-1.4,3.3-3.3,6.4-5.9,9.4h-6.5c3.8-3.7,6.5-7.5,8-11.3
		c1.2-3.1,2-6.3,2.2-9.7h-9.3v-4.7h9.3c-0.2-3.4-1-6.6-2.2-9.7c-1.5-3.8-4.2-7.6-8-11.3h6.5c2.5,3,4.5,6.2,5.9,9.5
		c1.5,3.6,2.4,7.4,2.6,11.5h9.8c0.2-4.1,1.1-8,2.6-11.5c1.4-3.3,3.3-6.4,5.9-9.5h6.5c-3.8,3.7-6.5,7.5-8,11.3
		c-1.3,3.1-2,6.3-2.2,9.7h9v4.7h-9c0.2,3.4,1,6.6,2.2,9.7c1.5,3.8,4.2,7.5,8,11.3H216c-2.6-3-4.5-6.2-5.9-9.4
		C208.6,150.5,207.7,146.7,207.5,142.6"/>
	<text transform="matrix(1 0 0 1 -81.5664 -29.8167)" style="font-family:'ArialMT'; font-size:16px;">Aries</text>
	<text transform="matrix(1 0 0 1 1.4844 -29.8167)" style="font-family:'ArialMT'; font-size:16px;">Taurus</text>
	<text transform="matrix(1 0 0 1 88.7852 -29.8167)" style="font-family:'ArialMT'; font-size:16px;">Gemini</text>
	<text transform="matrix(1 0 0 1 176.3477 -29.8167)" style="font-family:'ArialMT'; font-size:16px;">Cancer</text>
	<text transform="matrix(1 0 0 1 -77.3711 83.1979)" style="font-family:'ArialMT'; font-size:16px;">Leo</text>
	<text transform="matrix(1 0 0 1 6.918 83.1979)" style="font-family:'ArialMT'; font-size:16px;">Virgo</text>
	<text transform="matrix(1 0 0 1 96 83.1979)" style="font-family:'ArialMT'; font-size:16px;">Libra</text>
	<text transform="matrix(1 0 0 1 175.3594 83.1979)" style="font-family:'ArialMT'; font-size:16px;">Scorpio</text>
	<text transform="matrix(1 0 0 1 178.625 199.3141)" style="font-family:'ArialMT'; font-size:16px;">Pisces</text>
	<text transform="matrix(1 0 0 1 82.5859 199.3141)" style="font-family:'ArialMT'; font-size:16px;">Aquarius</text>
	<text transform="matrix(1 0 0 1 -9.3633 199.3141)" style="font-family:'ArialMT'; font-size:16px;">Capricorn</text>
	<text transform="matrix(1 0 0 1 -101.6016 199.3141)" style="font-family:'ArialMT'; font-size:16px;">Sagittarius</text>
</g>
</svg>
